<?xml version="1.0" encoding="iso-8859-1"?>
<!-- Generator: Adobe Illustrator 19.0.0, SVG Export Plug-In . SVG Version: 6.00 Build 0)  -->
<svg version="1.1" id="Capa_1" xmlns="http://www.w3.org/2000/svg" xmlns:xlink="http://www.w3.org/1999/xlink" x="0px" y="0px"
	 viewBox="0 0 368.033 368.033" style="enable-background:new 0 0 368.033 368.033;" xml:space="preserve">
<path style="fill:#CCE4FF;" d="M358.574,129.617c-5.68-16.96-28.24-25.92-38.96-40.08c-10.88-14.24-12.8-37.52-27.68-47.92
	c-14.8-10.32-38.4-4.96-56.08-10.48c-17.12-5.28-32.88-23.12-51.84-23.12s-34.72,17.84-51.76,23.12
	c-17.76,5.52-41.36,0.24-56.16,10.48c-14.88,10.4-16.8,33.68-27.68,47.92c-10.72,14.16-33.2,23.12-38.96,40.08
	c-5.6,16.4,6.96,36.24,6.96,54.4s-12.56,38-6.96,54.4c5.76,16.96,28.24,25.92,38.96,40.08c10.88,14.24,12.8,37.52,27.76,47.92
	c14.72,10.32,38.32,4.96,56.08,10.48c17.04,5.36,32.8,23.12,51.76,23.12s34.72-17.76,51.84-23.12c17.68-5.52,41.28-0.16,56.08-10.48
	c14.88-10.4,16.8-33.68,27.68-47.92c10.72-14.16,33.28-23.12,38.96-40.08c5.6-16.4-6.96-36.24-6.96-54.4
	C351.614,165.857,364.174,146.017,358.574,129.617z M184.014,296.017c-61.84,0-112-50.16-112-112s50.16-112,112-112
	c34.32,0,65.04,15.44,85.52,39.76c16.56,19.52,26.48,44.72,26.48,72.24C296.014,245.857,245.854,296.017,184.014,296.017z"/>
<g>
	<path style="fill:#007AFF;" d="M366.166,127.081c-4.152-12.384-14.584-20.488-24.68-28.32c-6.056-4.712-11.784-9.152-15.504-14.08
		c-3.808-4.968-6.48-11.632-9.312-18.68c-4.624-11.52-9.416-23.44-20.152-30.944c-10.616-7.4-23.8-8.104-36.544-8.776
		c-7.944-0.424-15.448-0.824-21.76-2.8c-5.912-1.824-12.016-5.632-18.48-9.664c-10.368-6.464-22.12-13.8-35.72-13.8
		c-13.624,0-25.384,7.352-35.752,13.832c-6.44,4.024-12.504,7.824-18.384,9.64c-6.336,1.968-13.864,2.384-21.84,2.816
		c-12.736,0.688-25.904,1.408-36.528,8.76c-10.728,7.504-15.512,19.416-20.144,30.936c-2.832,7.048-5.504,13.712-9.328,18.712
		c-3.72,4.904-9.44,9.352-15.496,14.064c-10.064,7.832-20.472,15.92-24.664,28.256c-4.08,11.96-0.704,24.24,2.56,36.12
		c2.04,7.44,3.968,14.456,3.968,20.864c0,6.408-1.928,13.432-3.968,20.864c-3.264,11.872-6.64,24.16-2.568,36.112
		c4.2,12.344,14.608,20.44,24.672,28.264c6.056,4.712,11.776,9.16,15.504,14.096c3.792,4.96,6.472,11.6,9.296,18.632
		c4.648,11.544,9.456,23.488,20.224,30.984c10.576,7.408,23.768,8.112,36.512,8.784c7.96,0.424,15.472,0.824,21.768,2.784
		c5.848,1.832,11.896,5.616,18.304,9.616c10.408,6.496,22.2,13.864,35.864,13.864c13.64,0,25.424-7.352,35.824-13.832
		c6.44-4.016,12.512-7.808,18.408-9.656c6.28-1.96,13.784-2.36,21.728-2.784c12.752-0.672,25.928-1.376,36.552-8.784
		c10.728-7.504,15.512-19.416,20.144-30.936c2.832-7.048,5.504-13.712,9.328-18.712c3.712-4.896,9.44-9.336,15.496-14.048
		c10.096-7.832,20.528-15.936,24.664-28.272c4.08-11.96,0.704-24.24-2.56-36.12c-2.04-7.44-3.968-14.456-3.968-20.864
		s1.928-13.432,3.968-20.864C366.846,151.273,370.222,138.993,366.166,127.081z M348.166,209.121
		c2.744,9.984,5.336,19.416,2.832,26.76c-2.608,7.792-10.728,14.096-19.32,20.768c-6.608,5.136-13.456,10.448-18.416,16.992
		c-5.12,6.704-8.328,14.704-11.44,22.44c-3.928,9.784-7.64,19.016-14.464,23.784c-6.864,4.792-17.248,5.344-28.24,5.92
		c-8.576,0.456-17.448,0.928-25.648,3.496c-7.848,2.456-15.096,6.976-22.104,11.344c-9.408,5.856-18.288,11.392-27.352,11.392
		c-9.072,0-17.96-5.552-27.376-11.44c-6.976-4.352-14.184-8.856-22.008-11.32c-8.224-2.552-17.104-3.024-25.688-3.488
		c-10.984-0.576-21.36-1.136-28.2-5.928c-6.88-4.784-10.6-14.04-14.544-23.832c-3.112-7.712-6.312-15.688-11.408-22.344
		c-4.984-6.584-11.816-11.896-18.424-17.04c-8.576-6.672-16.688-12.976-19.344-20.8c-2.496-7.296,0.104-16.728,2.84-26.712
		c2.232-8.128,4.544-16.528,4.544-25.104s-2.312-16.976-4.544-25.104c-2.744-9.984-5.336-19.416-2.832-26.72
		c2.648-7.816,10.76-14.12,19.336-20.792c6.608-5.144,13.44-10.456,18.408-17.008c5.12-6.704,8.328-14.704,11.44-22.44
		c3.928-9.784,7.64-19.016,14.44-23.768c6.864-4.76,17.256-5.32,28.256-5.912c8.6-0.472,17.496-0.944,25.72-3.504
		c7.848-2.432,15.104-6.968,22.12-11.352c9.376-5.856,18.232-11.392,27.264-11.392c9.016,0,17.872,5.52,27.24,11.376
		c7.056,4.408,14.344,8.952,22.216,11.376c8.192,2.56,17.064,3.04,25.64,3.496c10.992,0.576,21.376,1.136,28.232,5.912
		c6.832,4.776,10.536,14.008,14.472,23.792c3.112,7.736,6.32,15.736,11.424,22.408c4.976,6.576,11.824,11.888,18.432,17.024
		c8.592,6.672,16.712,12.976,19.336,20.816c2.496,7.296-0.104,16.728-2.84,26.712c-2.24,8.112-4.552,16.52-4.552,25.088
		S345.926,200.993,348.166,209.121z"/>
	<path style="fill:#007AFF;" d="M275.638,106.521c-22.912-27.008-56.312-42.504-91.624-42.504c-66.168,0-120,53.832-120,120
		s53.832,120,120,120s120-53.832,120-120c0-28.056-9.872-55.272-27.816-76.752C276.03,107.009,275.846,106.761,275.638,106.521z
		 M184.014,288.017c-57.344,0-104-46.656-104-104s46.656-104,104-104c28.568,0,55.592,11.816,75.232,32.424l-76.264,107.224
		l-41.312-41.304c-3.128-3.128-8.184-3.128-11.312,0c-3.128,3.128-3.128,8.184,0,11.312l48,48c1.504,1.512,3.544,2.344,5.656,2.344
		c0.216,0,0.448-0.008,0.664-0.032c2.352-0.192,4.496-1.416,5.848-3.328l79.216-111.376c11.816,17.208,18.272,37.688,18.272,58.736
		C288.014,241.361,241.358,288.017,184.014,288.017z"/>
</g>
<g>
</g>
<g>
</g>
<g>
</g>
<g>
</g>
<g>
</g>
<g>
</g>
<g>
</g>
<g>
</g>
<g>
</g>
<g>
</g>
<g>
</g>
<g>
</g>
<g>
</g>
<g>
</g>
<g>
</g>
</svg>
